<svg xmlns="http://www.w3.org/2000/svg" width="88.8" height="88.8" viewBox="0 0 88.8 88.8">
  <g id="Image" transform="translate(-16 -16)">
    <path id="Path_2067" data-name="Path 2067" d="M50.96,50.96H49.48a1.48,1.48,0,1,1,0-2.96h1.48a1.48,1.48,0,1,1,0,2.96Z" transform="translate(-26.08 -26.08)" fill="#267c88"/>
    <path id="Path_2068" data-name="Path 2068" d="M90.96,50.96H89.48a1.48,1.48,0,0,1,0-2.96h1.48a1.48,1.48,0,1,1,0,2.96Z" transform="translate(-58.68 -26.08)" fill="#267c88"/>
    <path id="Path_2069" data-name="Path 2069" d="M130.96,50.96h-1.48a1.48,1.48,0,0,1,0-2.96h1.48a1.48,1.48,0,1,1,0,2.96Z" transform="translate(-91.28 -26.08)" fill="#267c88"/>
    <path id="Path_2070" data-name="Path 2070" d="M100.36,16H20.44A4.44,4.44,0,0,0,16,20.44v79.92a4.44,4.44,0,0,0,4.44,4.44h79.92a4.44,4.44,0,0,0,4.44-4.44V20.44A4.44,4.44,0,0,0,100.36,16ZM20.44,18.96h79.92a1.48,1.48,0,0,1,1.48,1.48v7.4H18.96v-7.4A1.48,1.48,0,0,1,20.44,18.96Zm79.92,82.88H20.44a1.48,1.48,0,0,1-1.48-1.48V30.8h82.88v69.56A1.48,1.48,0,0,1,100.36,101.84Z" fill="#267c88"/>
    <path id="Path_2071" data-name="Path 2071" d="M123.48,144h-74A1.48,1.48,0,0,0,48,145.48V195.8a1.48,1.48,0,0,0,1.48,1.48h74a1.48,1.48,0,0,0,1.48-1.48V145.48A1.48,1.48,0,0,0,123.48,144ZM75.293,194.32H52.246l14.994-22.5L78.626,188.9Zm3.477,0L99.8,160.144l21.031,34.176ZM122,190.571l-20.939-34.027a1.538,1.538,0,0,0-2.516,0l-18.2,29.587-11.87-17.793a1.538,1.538,0,0,0-2.463,0L50.96,190.916V146.96H122Z" transform="translate(-26.08 -104.32)" fill="#267c88"/>
    <path id="Path_2072" data-name="Path 2072" d="M191.4,206.8a7.4,7.4,0,1,0-7.4-7.4A7.4,7.4,0,0,0,191.4,206.8Zm0-11.84a4.44,4.44,0,1,1-4.44,4.44h0A4.44,4.44,0,0,1,191.4,194.96Z" transform="translate(-136.92 -143.44)" fill="#267c88"/>
  </g>
</svg>
