<svg xmlns="http://www.w3.org/2000/svg" width="35.369" height="29.793" viewBox="0 0 35.369 29.793">
  <path id="Icon-poll" d="M39.909,22.453a2.21,2.21,0,0,0,2.211-2.211V18.211A2.21,2.21,0,0,0,39.909,16H19.038a2.21,2.21,0,0,0-2.211,2.211v2.031a2.21,2.21,0,0,0,2.211,2.211Zm0,11.67a2.21,2.21,0,0,0,2.211-2.211V29.084a2.21,2.21,0,0,0-2.211-2.211H8.961A2.21,2.21,0,0,0,6.75,29.084v2.828a2.21,2.21,0,0,0,2.211,2.211Zm0,11.67a2.21,2.21,0,0,0,2.211-2.211V40.755a2.21,2.21,0,0,0-2.211-2.211H31.066a2.21,2.21,0,0,0-2.211,2.211v2.828a2.21,2.21,0,0,0,2.211,2.211Z" transform="translate(-6.75 -16)" fill="#fff"/>
</svg>
