<?xml version="1.0" encoding="utf-8"?>
<!-- Generator: Adobe Illustrator 24.2.3, SVG Export Plug-In . SVG Version: 6.00 Build 0)  -->
<svg version="1.1" id="Layer_1" xmlns="http://www.w3.org/2000/svg" xmlns:xlink="http://www.w3.org/1999/xlink" x="0px" y="0px"
	 viewBox="0 0 512 512" style="enable-background:new 0 0 512 512;" xml:space="preserve">
<style type="text/css">
	.st0{fill:#267C88;}
</style>
<path class="st0" d="M48.2,468.1c-4.4,0-8-3.6-8-8c0-4.4,3.5-8,8-8h0.1c4.4,0,8,3.6,8,8C56.2,464.6,52.7,468.1,48.2,468.1z"/>
<path class="st0" d="M488,383.8c-2.8,0-5.5-1.4-6.9-4c-2.2-3.8-0.9-8.7,2.9-10.9c7.4-4.3,12-12.3,12-20.8c0-13.2-10.8-24-24-24
	c-4.4,0-8-3.6-8-8c0-4.4,3.6-8,8-8c22.1,0,40,17.9,40,40c0,14.2-7.7,27.5-20,34.6C490.8,383.5,489.4,383.8,488,383.8z"/>
<path class="st0" d="M272,500.1c-2.8,0-5.6-1.5-7.1-4.2c-2.1-3.9-0.6-8.7,3.3-10.8l216-116.3c3.9-2.1,8.7-0.6,10.8,3.3
	c2.1,3.9,0.6,8.7-3.3,10.8l-216,116.3C274.6,499.8,273.3,500.1,272,500.1z"/>
<path class="st0" d="M272,500.1c-0.3,0-0.7,0-1-0.1l-184-24c-4.4-0.6-7.5-4.6-6.9-9c0.6-4.4,4.6-7.5,9-6.9l184,24
	c4.4,0.6,7.5,4.6,6.9,9C279.4,497.2,276,500.1,272,500.1z"/>
<path class="st0" d="M88,492.1H8c-4.4,0-8-3.6-8-8v-216c0-4.4,3.6-8,8-8h80c4.4,0,8,3.6,8,8v216C96,488.6,92.4,492.1,88,492.1z
	 M16,476.1h64v-200H16V476.1z"/>
<path class="st0" d="M312,348.1c-3.9,0-7.3-2.8-7.9-6.8c-0.7-4.4,2.3-8.4,6.7-9.1l154.5-23.5c4.4-0.7,8.4,2.3,9.1,6.7
	c0.7,4.4-2.3,8.4-6.7,9.1L313.2,348C312.8,348.1,312.4,348.1,312,348.1z"/>
<path class="st0" d="M280,380.1c-4.4,0-8-3.6-8-8c0-4.4,3.6-8,8-8c13.2,0,24-10.8,24-24c0-11.7-8.4-21.7-19.9-23.6
	c-4.4-0.8-7.3-4.9-6.5-9.2c0.8-4.4,4.9-7.2,9.2-6.5c19.2,3.3,33.1,19.9,33.1,39.4C320,362.2,302.1,380.1,280,380.1z"/>
<path class="st0" d="M285.5,316.6c-0.5,0-1-0.1-1.5-0.2L158.5,292c-4.3-0.8-7.2-5-6.3-9.4c0.8-4.3,5-7.2,9.4-6.3L287,300.7
	c4.3,0.8,7.2,5.1,6.3,9.4C292.6,313.9,289.3,316.6,285.5,316.6z"/>
<path class="st0" d="M160,292.1H88c-4.4,0-8-3.6-8-8c0-4.4,3.6-8,8-8h72c4.4,0,8,3.6,8,8C168,288.6,164.4,292.1,160,292.1z"/>
<path class="st0" d="M276.6,379.9c-0.2,0-0.4,0-0.6,0l-100.6-7.8c-4.4-0.3-7.7-4.2-7.4-8.6c0.3-4.4,4.2-7.7,8.6-7.4l100.6,7.8
	c4.4,0.3,7.7,4.2,7.4,8.6C284.3,376.8,280.8,379.9,276.6,379.9z"/>
<path class="st0" d="M466.5,324.6c-3.8,0-7.2-2.8-7.9-6.7c-0.7-4.4,2.2-8.5,6.6-9.2c2.2-0.4,4.5-0.6,6.8-0.6c4.4,0,8,3.6,8,8
	c0,4.4-3.6,8-8,8c-1.4,0-2.8,0.1-4.2,0.3C467.4,324.6,467,324.6,466.5,324.6z"/>
<path class="st0" d="M280,380.1c-1.4,0-2.9-0.1-4.2-0.2c-4.4-0.5-7.5-4.5-7.1-8.8c0.5-4.4,4.4-7.7,8.8-7c0.8,0.1,1.6,0.1,2.5,0.1
	c4.4,0,8,3.6,8,8C288,376.6,284.4,380.1,280,380.1z"/>
<path class="st0" d="M192.1,298.1c-0.3,0-0.6,0-1-0.1c-4.4-0.5-7.5-4.5-7-8.9c1.4-12,11.7-21.1,23.8-21.1c4.4,0,8,3.6,8,8
	c0,4.4-3.6,8-8,8c-4,0-7.5,3-7.9,7C199.6,295.1,196.1,298.1,192.1,298.1z"/>
<path class="st0" d="M368,300.1c-4.4,0-8-3.6-8-8c0-4.4-3.6-8-8-8c-4.4,0-8-3.6-8-8c0-4.4,3.6-8,8-8c13.2,0,24,10.8,24,24
	C376,296.5,372.4,300.1,368,300.1z"/>
<path class="st0" d="M368,340.2c-4.4,0-8-3.6-8-8v-40.1c0-4.4,3.6-8,8-8c4.4,0,8,3.6,8,8v40.1C376,336.6,372.4,340.2,368,340.2z"/>
<path class="st0" d="M352,284.1H208c-4.4,0-8-3.6-8-8c0-4.4,3.6-8,8-8h144c4.4,0,8,3.6,8,8C360,280.5,356.4,284.1,352,284.1z"/>
<path class="st0" d="M268,284c-4.4,0-8-3.6-8-8V68c0-4.4,3.6-8,8-8c4.4,0,8,3.6,8,8v208C276,280.5,272.4,284,268,284z"/>
<path class="st0" d="M292,284c-4.4,0-8-3.6-8-8V68c0-4.4,3.6-8,8-8s8,3.6,8,8v208C300,280.5,296.4,284,292,284z"/>
<path class="st0" d="M292,40c-4.4,0-8-3.6-8-8c0-2.2-1.8-4-4-4s-4,1.8-4,4c0,4.4-3.6,8-8,8s-8-3.6-8-8c0-11,9-20,20-20s20,9,20,20
	C300,36.4,296.4,40,292,40z"/>
<path class="st0" d="M396.1,76c-4.4,0-8-3.6-8-8s3.6-8,8-8c2.2,0,4-1.8,4-4s-1.8-4-4-4c-4.4,0-8-3.6-8-8s3.6-8,8-8c11,0,20,9,20,20
	S407.2,76,396.1,76z"/>
<path class="st0" d="M164.1,76c-11,0-20-9-20-20s9-20,20-20c4.4,0,8,3.6,8,8s-3.6,8-8,8c-2.2,0-4,1.8-4,4s1.8,4,4,4c4.4,0,8,3.6,8,8
	S168.5,76,164.1,76z"/>
<path class="st0" d="M396.1,52H164.6c-4.4,0-8-3.6-8-8c0-4.4,3.6-8,8-8h231.5c4.4,0,8,3.6,8,8C404.1,48.4,400.5,52,396.1,52z"/>
<path class="st0" d="M396.1,76H164.6c-4.4,0-8-3.6-8-8s3.6-8,8-8h231.5c4.4,0,8,3.6,8,8S400.5,76,396.1,76z"/>
<path class="st0" d="M268,52c-4.4,0-8-3.6-8-8V32c0-4.4,3.6-8,8-8s8,3.6,8,8v12C276,48.4,272.4,52,268,52z"/>
<path class="st0" d="M292,52c-4.4,0-8-3.6-8-8V32c0-4.4,3.6-8,8-8s8,3.6,8,8v12C300,48.4,296.4,52,292,52z"/>
<path class="st0" d="M168.1,228c-26.5,0-48-21.5-48-48c0-4.4,3.6-8,8-8c4.4,0,8,3.6,8,8c0,17.6,14.4,32,32,32s32-14.4,32-32
	c0-4.4,3.6-8,8-8c4.4,0,8,3.6,8,8C216.1,206.5,194.6,228,168.1,228z"/>
<path class="st0" d="M208.1,188h-80c-4.4,0-8-3.6-8-8c0-4.4,3.6-8,8-8h80c4.4,0,8,3.6,8,8C216.1,184.5,212.5,188,208.1,188z"/>
<path class="st0" d="M128.1,188c-0.9,0-1.8-0.2-2.7-0.5c-4.2-1.5-6.3-6.1-4.8-10.2l40-112c1.5-4.2,6.1-6.4,10.2-4.8
	c4.2,1.5,6.3,6.1,4.8,10.2l-40,112C134.5,186,131.4,188,128.1,188z"/>
<path class="st0" d="M208.1,188c-3.3,0-6.4-2-7.5-5.3l-40-112c-1.5-4.2,0.7-8.7,4.8-10.2c4.1-1.5,8.7,0.7,10.2,4.8l40,112
	c1.5,4.2-0.7,8.7-4.8,10.2C209.9,187.9,209,188,208.1,188z"/>
<path class="st0" d="M392.3,236.2c-26.5,0-48.1-21.6-48.1-48.1c0-4.4,3.6-8,8-8c4.4,0,8,3.6,8,8c0,17.7,14.4,32.1,32.1,32.1
	s32.1-14.4,32.1-32.1c0-4.4,3.6-8,8-8c4.4,0,8,3.6,8,8C440.5,214.6,418.9,236.2,392.3,236.2z"/>
<path class="st0" d="M432.3,196h-80c-4.4,0-8-3.6-8-8c0-4.4,3.6-8,8-8h80c4.4,0,8,3.6,8,8C440.3,192.5,436.8,196,432.3,196z"/>
<path class="st0" d="M352.3,196c-0.8,0-1.7-0.1-2.5-0.4c-4.2-1.4-6.5-5.9-5.1-10.1l40-120c1.4-4.2,5.9-6.5,10.1-5.1
	c4.2,1.4,6.5,5.9,5.1,10.1l-40,120C358.8,193.9,355.7,196,352.3,196z"/>
<path class="st0" d="M432.3,196c-3.4,0-6.5-2.1-7.6-5.5l-40-120c-1.4-4.2,0.9-8.7,5.1-10.1c4.2-1.4,8.7,0.9,10.1,5.1l40,120
	c1.4,4.2-0.9,8.7-5.1,10.1C434,195.9,433.2,196,432.3,196z"/>
</svg>
