<svg id="noun_Document_2360474" xmlns="http://www.w3.org/2000/svg" width="43.313" height="44" viewBox="0 0 43.313 44">
  <g id="Group_86" data-name="Group 86">
    <g id="Group_85" data-name="Group 85">
      <g id="Group_47" data-name="Group 47" transform="translate(9.625 38.5)">
        <path id="Path_72" data-name="Path 72" d="M17.25,61.5a2.75,2.75,0,0,1,0-5.5.688.688,0,0,1,0,1.375,1.375,1.375,0,0,0,0,2.75.688.688,0,0,1,0,1.375Z" transform="translate(-14.5 -56)" fill="#267c88"/>
      </g>
      <g id="Group_48" data-name="Group 48" transform="translate(11.688 38.5)">
        <path id="Path_73" data-name="Path 73" d="M43.625,57.375H18.188a.688.688,0,0,1,0-1.375H43.625a.688.688,0,0,1,0,1.375Z" transform="translate(-17.5 -56)" fill="#267c88"/>
      </g>
      <g id="Group_49" data-name="Group 49" transform="translate(11.688 42.625)">
        <path id="Path_74" data-name="Path 74" d="M43.625,63.375H18.188a.688.688,0,0,1,0-1.375H43.625a.688.688,0,0,1,0,1.375Z" transform="translate(-17.5 -62)" fill="#267c88"/>
      </g>
      <g id="Group_50" data-name="Group 50" transform="translate(37.125 36.438)">
        <path id="Path_75" data-name="Path 75" d="M55.188,56.438a.688.688,0,0,1,0-1.375,1.376,1.376,0,0,0,1.375-1.375.688.688,0,0,1,1.375,0A2.753,2.753,0,0,1,55.188,56.438Z" transform="translate(-54.5 -53)" fill="#267c88"/>
      </g>
      <g id="Group_51" data-name="Group 51" transform="translate(37.125)">
        <path id="Path_76" data-name="Path 76" d="M57.25,3.438a.687.687,0,0,1-.687-.687,1.376,1.376,0,0,0-1.375-1.375.688.688,0,0,1,0-1.375,2.753,2.753,0,0,1,2.75,2.75A.687.687,0,0,1,57.25,3.438Z" transform="translate(-54.5)" fill="#267c88"/>
      </g>
      <g id="Group_52" data-name="Group 52" transform="translate(9.625)">
        <path id="Path_77" data-name="Path 77" d="M15.188,3.438A.687.687,0,0,1,14.5,2.75,2.753,2.753,0,0,1,17.25,0a.688.688,0,0,1,0,1.375A1.376,1.376,0,0,0,15.875,2.75.687.687,0,0,1,15.188,3.438Z" transform="translate(-14.5)" fill="#267c88"/>
      </g>
      <g id="Group_53" data-name="Group 53" transform="translate(37.125 40.563)">
        <path id="Path_78" data-name="Path 78" d="M55.188,62.438a.688.688,0,0,1,0-1.375,1.376,1.376,0,0,0,1.375-1.375.688.688,0,0,1,1.375,0A2.753,2.753,0,0,1,55.188,62.438Z" transform="translate(-54.5 -59)" fill="#267c88"/>
      </g>
      <g id="Group_54" data-name="Group 54" transform="translate(39.188 3.438)">
        <path id="Path_79" data-name="Path 79" d="M58.187,18.063a.687.687,0,0,1-.486-1.174L60.25,14.34V6.375H58.187a.688.688,0,0,1,0-1.375h2.75a.687.687,0,0,1,.688.688v8.938a.686.686,0,0,1-.2.486l-2.75,2.75A.686.686,0,0,1,58.187,18.063Z" transform="translate(-57.5 -5)" fill="#267c88"/>
      </g>
      <g id="Group_55" data-name="Group 55" transform="translate(11.688)">
        <path id="Path_80" data-name="Path 80" d="M43.625,1.375H18.188a.688.688,0,0,1,0-1.375H43.625a.688.688,0,0,1,0,1.375Z" transform="translate(-17.5)" fill="#267c88"/>
      </g>
      <g id="Group_56" data-name="Group 56" transform="translate(9.625 2.063)">
        <path id="Path_81" data-name="Path 81" d="M15.188,42.875a.687.687,0,0,1-.687-.687V3.688a.688.688,0,0,1,1.375,0v38.5A.687.687,0,0,1,15.188,42.875Z" transform="translate(-14.5 -3)" fill="#267c88"/>
      </g>
      <g id="Group_57" data-name="Group 57" transform="translate(12.375 40.563)">
        <path id="Path_82" data-name="Path 82" d="M43.25,60.375H19.188a.688.688,0,0,1,0-1.375H43.25a.688.688,0,0,1,0,1.375Z" transform="translate(-18.5 -59)" fill="#267c88"/>
      </g>
      <g id="Group_58" data-name="Group 58" transform="translate(36.438 38.5)">
        <path id="Path_83" data-name="Path 83" d="M54.188,59.438a.687.687,0,0,1-.687-.687V56.688a.688.688,0,0,1,1.375,0V58.75A.687.687,0,0,1,54.188,59.438Z" transform="translate(-53.5 -56)" fill="#267c88"/>
      </g>
      <g id="Group_59" data-name="Group 59" transform="translate(12.375 38.5)">
        <path id="Path_84" data-name="Path 84" d="M19.188,59.438a.687.687,0,0,1-.687-.687V56.688a.688.688,0,0,1,1.375,0V58.75A.687.687,0,0,1,19.188,59.438Z" transform="translate(-18.5 -56)" fill="#267c88"/>
      </g>
      <g id="Group_60" data-name="Group 60" transform="translate(39.188 2.063)">
        <path id="Path_85" data-name="Path 85" d="M58.188,42.875a.687.687,0,0,1-.687-.687V3.688a.688.688,0,0,1,1.375,0v38.5A.687.687,0,0,1,58.188,42.875Z" transform="translate(-57.5 -3)" fill="#267c88"/>
      </g>
      <g id="Group_61" data-name="Group 61" transform="translate(0 3.438)">
        <path id="Path_86" data-name="Path 86" d="M10.812,6.375H1.188A.688.688,0,0,1,1.188,5h9.624a.688.688,0,1,1,0,1.375Z" transform="translate(-0.5 -5)" fill="#267c88"/>
      </g>
      <g id="Group_62" data-name="Group 62" transform="translate(3.438 37.813)">
        <path id="Path_87" data-name="Path 87" d="M12.374,56.375H6.188a.688.688,0,0,1,0-1.375h6.187a.688.688,0,1,1,0,1.375Z" transform="translate(-5.5 -55)" fill="#267c88"/>
      </g>
      <g id="Group_63" data-name="Group 63" transform="translate(0 3.438)">
        <path id="Path_88" data-name="Path 88" d="M1.188,37.313A.687.687,0,0,1,.5,36.625V5.688a.688.688,0,0,1,1.375,0V36.625A.687.687,0,0,1,1.188,37.313Z" transform="translate(-0.5 -5)" fill="#267c88"/>
      </g>
      <g id="Group_64" data-name="Group 64" transform="translate(0 34.375)">
        <path id="Path_89" data-name="Path 89" d="M4.625,54.812a.686.686,0,0,1-.486-.2L.7,51.173a.687.687,0,0,1,.972-.972l3.437,3.438a.688.688,0,0,1-.486,1.174Z" transform="translate(-0.5 -50)" fill="#267c88"/>
      </g>
      <g id="Group_65" data-name="Group 65" transform="translate(3.438 34.375)">
        <path id="Path_90" data-name="Path 90" d="M6.188,54.813a.687.687,0,0,1-.687-.687V50.688a.688.688,0,0,1,1.375,0v3.438A.687.687,0,0,1,6.188,54.813Z" transform="translate(-5.5 -50)" fill="#267c88"/>
      </g>
      <g id="Group_66" data-name="Group 66" transform="translate(0 34.375)">
        <path id="Path_91" data-name="Path 91" d="M4.625,51.375H1.188a.688.688,0,0,1,0-1.375H4.625a.688.688,0,0,1,0,1.375Z" transform="translate(-0.5 -50)" fill="#267c88"/>
      </g>
      <g id="Group_67" data-name="Group 67" transform="translate(4.813 13.063)">
        <path id="Path_92" data-name="Path 92" d="M13,20.375H8.188a.688.688,0,0,1,0-1.375H13a.688.688,0,0,1,0,1.375Z" transform="translate(-7.5 -19)" fill="#267c88"/>
      </g>
      <g id="Group_68" data-name="Group 68" transform="translate(4.813 17.188)">
        <path id="Path_93" data-name="Path 93" d="M13,26.375H8.188a.688.688,0,0,1,0-1.375H13a.688.688,0,0,1,0,1.375Z" transform="translate(-7.5 -25)" fill="#267c88"/>
      </g>
      <g id="Group_69" data-name="Group 69" transform="translate(4.813 21.313)">
        <path id="Path_94" data-name="Path 94" d="M13,32.375H8.188a.688.688,0,0,1,0-1.375H13a.688.688,0,0,1,0,1.375Z" transform="translate(-7.5 -31)" fill="#267c88"/>
      </g>
      <g id="Group_70" data-name="Group 70" transform="translate(4.813 25.438)">
        <path id="Path_95" data-name="Path 95" d="M13,38.375H8.188a.688.688,0,0,1,0-1.375H13a.688.688,0,0,1,0,1.375Z" transform="translate(-7.5 -37)" fill="#267c88"/>
      </g>
      <g id="Group_84" data-name="Group 84" transform="translate(16.494 8.262)">
        <g id="Group_71" data-name="Group 71" transform="translate(2.065 2.063)">
          <path id="Path_96" data-name="Path 96" d="M40.556,16.393H28.183a.688.688,0,1,1,0-1.375H40.556a.688.688,0,0,1,0,1.375Z" transform="translate(-27.495 -15.018)" fill="#267c88"/>
        </g>
        <g id="Group_72" data-name="Group 72" transform="translate(8.253)">
          <path id="Path_97" data-name="Path 97" d="M37.182,29.208a.687.687,0,0,1-.687-.687V12.705a.688.688,0,0,1,1.375,0V28.521A.687.687,0,0,1,37.182,29.208Z" transform="translate(-36.495 -12.018)" fill="#267c88"/>
        </g>
        <g id="Group_73" data-name="Group 73" transform="translate(2.753 15.815)">
          <path id="Path_98" data-name="Path 98" d="M40.182,36.4h-11a.688.688,0,1,1,0-1.375h11a.688.688,0,0,1,0,1.375Z" transform="translate(-28.495 -35.022)" fill="#267c88"/>
        </g>
        <g id="Group_74" data-name="Group 74" transform="translate(0 20.626)">
          <path id="Path_99" data-name="Path 99" d="M41.684,43.394H25.178a.688.688,0,1,1,0-1.375H41.684a.688.688,0,0,1,0,1.375Z" transform="translate(-24.491 -42.019)" fill="#267c88"/>
        </g>
        <g id="Group_75" data-name="Group 75" transform="translate(4.126 22.688)">
          <path id="Path_100" data-name="Path 100" d="M39.435,46.393H31.181a.688.688,0,0,1,0-1.375h8.254a.688.688,0,0,1,0,1.375Z" transform="translate(-30.493 -45.018)" fill="#267c88"/>
        </g>
        <g id="Group_76" data-name="Group 76" transform="translate(0.003 8.251)">
          <path id="Path_101" data-name="Path 101" d="M27.245,27.458a2.753,2.753,0,0,1-2.75-2.75.688.688,0,0,1,1.375,0,1.375,1.375,0,1,0,2.75,0,.688.688,0,0,1,1.375,0A2.753,2.753,0,0,1,27.245,27.458Z" transform="translate(-24.495 -24.02)" fill="#267c88"/>
        </g>
        <g id="Group_77" data-name="Group 77" transform="translate(0.003 8.251)">
          <path id="Path_102" data-name="Path 102" d="M29.308,25.4H25.183a.687.687,0,0,1,0-1.375h4.125a.688.688,0,1,1,0,1.375Z" transform="translate(-24.495 -24.02)" fill="#267c88"/>
        </g>
        <g id="Group_78" data-name="Group 78" transform="translate(0.003 2.062)">
          <path id="Path_103" data-name="Path 103" d="M25.183,22.581a.689.689,0,0,1-.652-.905l2.063-6.189a.687.687,0,1,1,1.3.435l-2.062,6.189A.688.688,0,0,1,25.183,22.581Z" transform="translate(-24.495 -15.017)" fill="#267c88"/>
        </g>
        <g id="Group_79" data-name="Group 79" transform="translate(2.065 2.062)">
          <path id="Path_104" data-name="Path 104" d="M30.245,22.582a.687.687,0,0,1-.652-.47l-2.062-6.189a.687.687,0,1,1,1.3-.435L30.9,21.676a.689.689,0,0,1-.652.905Z" transform="translate(-27.495 -15.017)" fill="#267c88"/>
        </g>
        <g id="Group_80" data-name="Group 80" transform="translate(12.376 8.251)">
          <path id="Path_105" data-name="Path 105" d="M45.243,27.458a2.753,2.753,0,0,1-2.75-2.75.688.688,0,0,1,1.375,0,1.375,1.375,0,1,0,2.75,0,.688.688,0,0,1,1.375,0A2.753,2.753,0,0,1,45.243,27.458Z" transform="translate(-42.493 -24.02)" fill="#267c88"/>
        </g>
        <g id="Group_81" data-name="Group 81" transform="translate(12.376 8.251)">
          <path id="Path_106" data-name="Path 106" d="M47.305,25.4H43.181a.687.687,0,0,1,0-1.375h4.125a.688.688,0,0,1,0,1.375Z" transform="translate(-42.493 -24.02)" fill="#267c88"/>
        </g>
        <g id="Group_82" data-name="Group 82" transform="translate(12.377 2.062)">
          <path id="Path_107" data-name="Path 107" d="M43.181,22.581a.689.689,0,0,1-.652-.905l2.063-6.189a.687.687,0,0,1,1.3.435l-2.063,6.189A.688.688,0,0,1,43.181,22.581Z" transform="translate(-42.493 -15.017)" fill="#267c88"/>
        </g>
        <g id="Group_83" data-name="Group 83" transform="translate(14.439 2.062)">
          <path id="Path_108" data-name="Path 108" d="M48.243,22.582a.687.687,0,0,1-.652-.47l-2.062-6.189a.687.687,0,1,1,1.3-.435L48.9,21.676a.689.689,0,0,1-.652.905Z" transform="translate(-45.493 -15.017)" fill="#267c88"/>
        </g>
      </g>
    </g>
  </g>
</svg>
