<?xml version="1.0" encoding="utf-8"?>
<!-- Generator: Adobe Illustrator 24.2.3, SVG Export Plug-In . SVG Version: 6.00 Build 0)  -->
<svg version="1.1" id="Layer_1" xmlns="http://www.w3.org/2000/svg" xmlns:xlink="http://www.w3.org/1999/xlink" x="0px" y="0px"
	 viewBox="0 0 512 512" style="enable-background:new 0 0 512 512;" xml:space="preserve">
<style type="text/css">
	.st0{fill:#267C88;}
</style>
<path class="st0" d="M357.3,95.6c0-26.7-21.8-48.5-48.5-48.5c-26.7,0-48.5,21.8-48.5,48.5c0,26.7,21.8,48.5,48.5,48.5
	C335.5,144.1,357.3,122.4,357.3,95.6z M275.3,95.6c0-18.5,15-33.5,33.5-33.5s33.5,15,33.5,33.5c0,18.5-15,33.5-33.5,33.5
	S275.3,114.1,275.3,95.6z"/>
<path class="st0" d="M226.2,69.9c4.1,0,7.5-3.4,7.5-7.5s-3.4-7.5-7.5-7.5h-19.7c-4.1,0-7.5,3.4-7.5,7.5s3.4,7.5,7.5,7.5H226.2z"/>
<path class="st0" d="M58.3,69.9h99.6c4.1,0,7.5-3.4,7.5-7.5s-3.4-7.5-7.5-7.5H58.3c-4.1,0-7.5,3.4-7.5,7.5S54.1,69.9,58.3,69.9z"/>
<path class="st0" d="M58.3,136.3H84c4.1,0,7.5-3.4,7.5-7.5c0-4.1-3.4-7.5-7.5-7.5H58.3c-4.1,0-7.5,3.4-7.5,7.5
	C50.8,133,54.1,136.3,58.3,136.3z"/>
<path class="st0" d="M132.5,121.3c-4.1,0-7.5,3.4-7.5,7.5c0,4.1,3.4,7.5,7.5,7.5h16.2c4.1,0,7.5-3.4,7.5-7.5c0-4.1-3.4-7.5-7.5-7.5
	H132.5z"/>
<path class="st0" d="M58.3,103.1h167.9c4.1,0,7.5-3.4,7.5-7.5s-3.4-7.5-7.5-7.5H58.3c-4.1,0-7.5,3.4-7.5,7.5S54.1,103.1,58.3,103.1z
	"/>
<path class="st0" d="M77.9,227.3h252.2c15,0,27.1-12.2,27.1-27.1S345.1,173,330.1,173H77.9c-15,0-27.1,12.2-27.1,27.1
	S63,227.3,77.9,227.3z M77.9,188h252.2c6.7,0,12.2,5.4,12.2,12.2s-5.5,12.2-12.2,12.2H77.9c-6.7,0-12.2-5.5-12.2-12.2
	S71.2,188,77.9,188z"/>
<path class="st0" d="M77.9,296.1h252.2c15,0,27.1-12.2,27.1-27.1s-12.2-27.1-27.1-27.1H77.9c-15,0-27.1,12.2-27.1,27.1
	S63,296.1,77.9,296.1z M77.9,256.8h252.2c6.7,0,12.2,5.5,12.2,12.2c0,6.7-5.5,12.2-12.2,12.2H77.9c-6.7,0-12.2-5.5-12.2-12.2
	C65.8,262.2,71.2,256.8,77.9,256.8z"/>
<path class="st0" d="M77.9,364.9h252.2c15,0,27.1-12.2,27.1-27.1s-12.2-27.1-27.1-27.1H77.9c-15,0-27.1,12.2-27.1,27.1
	S63,364.9,77.9,364.9z M77.9,325.6h252.2c6.7,0,12.2,5.5,12.2,12.2c0,6.7-5.5,12.2-12.2,12.2H77.9c-6.7,0-12.2-5.5-12.2-12.2
	C65.8,331,71.2,325.6,77.9,325.6z"/>
<path class="st0" d="M77.9,433.6h176.9c15,0,27.1-12.2,27.1-27.1s-12.2-27.1-27.1-27.1H77.9c-15,0-27.1,12.2-27.1,27.1
	S63,433.6,77.9,433.6z M77.9,394.3h176.9c6.7,0,12.2,5.5,12.2,12.2s-5.4,12.2-12.2,12.2H77.9c-6.7,0-12.2-5.4-12.2-12.2
	S71.2,394.3,77.9,394.3z"/>
<path class="st0" d="M488.5,400.7h-28.3v-25c0-6.4-3.9-11.9-9.4-14.3l11-50.4c3.2-14.5-0.7-29.9-10.2-41.2
	c-9.1-10.8-22.4-17-36.6-17c-2.4,0-4.7,0.2-7,0.5V24.9C408,11.2,396.9,0,383.1,0H24.9C11.2,0,0,11.2,0,24.9v80.4
	c0,4.1,3.4,7.5,7.5,7.5s7.5-3.4,7.5-7.5V24.9c0-5.5,4.4-9.9,9.9-9.9h358.2c5.5,0,9.9,4.4,9.9,9.9v233.3c-5.5,2.8-10.5,6.8-14.6,11.6
	c-5.7,6.7-9.4,14.8-10.8,23.5c-0.6,4.1,2.1,7.9,6.2,8.6c4.1,0.6,7.9-2.1,8.6-6.2c0.9-5.9,3.5-11.5,7.4-16.1
	c6.3-7.4,15.4-11.6,25.1-11.6s18.9,4.2,25.1,11.6c6.6,7.8,9.2,18.3,7,28.3L435.8,360h-41.5l-7-32.1c-0.9-4-4.9-6.6-8.9-5.7
	c-4,0.9-6.6,4.9-5.7,8.9l6.6,30.2c-5.5,2.4-9.4,7.9-9.4,14.3v25h-28.3c-12.9,0-23.5,10.5-23.5,23.5v19.1c0,12.9,10.5,23.5,23.5,23.5
	h0.4l4.6,20.2c0.8,3.6,2.2,6.9,4.1,9.9H24.9c-5.5,0-9.9-4.4-9.9-9.9V139.7c0-4.1-3.4-7.5-7.5-7.5S0,135.6,0,139.7v347.2
	c0,13.7,11.2,24.9,24.9,24.9l427.7-0.1c15,0,27.7-10.2,31-24.8l4.6-20.2h0.4c12.9,0,23.5-10.5,23.5-23.5v-19.1
	C512,411.2,501.5,400.7,488.5,400.7z M384.8,375.7c0-0.4,0.3-0.7,0.7-0.7h59.1c0.4,0,0.7,0.3,0.7,0.7v25h-60.4V375.7z M469,483.6
	c-1.7,7.7-8.5,13.1-16.4,13.1h-75.1c-7.9,0-14.7-5.4-16.4-13.1l-3.8-16.9h115.5L469,483.6z M497,443.3c0,4.7-3.8,8.5-8.5,8.5h-147
	c-4.7,0-8.5-3.8-8.5-8.5v-19.1c0-4.7,3.8-8.5,8.5-8.5h147c4.7,0,8.5,3.8,8.5,8.5V443.3z"/>
</svg>
