<svg xmlns="http://www.w3.org/2000/svg" width="88.561" height="100.9" viewBox="0 0 88.561 100.9">
  <g id="Group_649" data-name="Group 649" transform="translate(-31.937 0.998)">
    <path id="Path_2053" data-name="Path 2053" d="M196.251,30.513a2.786,2.786,0,1,1-2.786-2.786A2.786,2.786,0,0,1,196.251,30.513Z" transform="translate(-127.397 -23.053)" fill="#267c88"/>
    <path id="Path_2054" data-name="Path 2054" d="M94.725,12.933h-19.6V8.057a9.055,9.055,0,1,0-18.11,0v4.876h-19.6a5.479,5.479,0,0,0-5.472,5.473V94.429A5.479,5.479,0,0,0,37.409,99.9H94.725a5.48,5.48,0,0,0,5.473-5.473V64.08a1.493,1.493,0,0,0-2.985,0v30.35a2.49,2.49,0,0,1-2.488,2.487H37.409a2.49,2.49,0,0,1-2.487-2.487V18.406a2.49,2.49,0,0,1,2.487-2.487H94.725a2.491,2.491,0,0,1,2.488,2.487V57.139a1.493,1.493,0,0,0,2.985,0V18.406A5.479,5.479,0,0,0,94.725,12.933ZM60,8.057a6.07,6.07,0,1,1,12.14,0v4.876H60Z" transform="translate(0 0)" fill="#267c88"/>
    <path id="Path_2055" data-name="Path 2055" d="M157.252,144.14H130.186a1.492,1.492,0,1,0,0,2.985h27.066a1.492,1.492,0,0,0,0-2.985Z" transform="translate(-77.651 -116.48)" fill="#267c88"/>
    <path id="Path_2056" data-name="Path 2056" d="M65.682,127.208A1.492,1.492,0,0,0,64.19,128.7v45.847a1.492,1.492,0,0,0,1.492,1.493h52.54a1.493,1.493,0,0,0,1.493-1.493V103.3a1.492,1.492,0,0,0-1.493-1.492H65.682A1.492,1.492,0,0,0,64.19,103.3v18.428a1.492,1.492,0,1,0,2.985,0V104.794h49.555v68.262H67.175V128.7A1.493,1.493,0,0,0,65.682,127.208Z" transform="translate(-25.884 -82.507)" fill="#267c88"/>
    <path id="Path_2057" data-name="Path 2057" d="M101.481,198.042V206a1.492,1.492,0,0,0,1.493,1.493h8.159A1.492,1.492,0,0,0,112.625,206v-7.961a1.493,1.493,0,0,0-1.493-1.493h-8.159A1.493,1.493,0,0,0,101.481,198.042Zm2.985,1.493h5.174v4.975h-5.174Z" transform="translate(-55.812 -158.54)" fill="#267c88"/>
    <path id="Path_2058" data-name="Path 2058" d="M195.791,197.555h-24.28a1.493,1.493,0,0,0,0,2.985h24.28a1.493,1.493,0,0,0,0-2.985Z" transform="translate(-110.817 -159.348)" fill="#267c88"/>
    <path id="Path_2059" data-name="Path 2059" d="M171.512,239.85H185.84a1.493,1.493,0,1,0,0-2.985H171.512a1.493,1.493,0,0,0,0,2.985Z" transform="translate(-110.817 -190.896)" fill="#267c88"/>
    <path id="Path_2060" data-name="Path 2060" d="M101.481,295.705a1.493,1.493,0,0,0,1.493,1.493h8.159a1.493,1.493,0,0,0,1.493-1.493v-7.96a1.493,1.493,0,0,0-1.493-1.493h-8.159a1.493,1.493,0,0,0-1.493,1.493Zm2.985-6.467h5.174v4.975h-5.174Z" transform="translate(-55.812 -230.532)" fill="#267c88"/>
    <path id="Path_2061" data-name="Path 2061" d="M195.791,287.259h-24.28a1.493,1.493,0,0,0,0,2.985h24.28a1.493,1.493,0,0,0,0-2.985Z" transform="translate(-110.817 -231.339)" fill="#267c88"/>
    <path id="Path_2062" data-name="Path 2062" d="M171.512,329.55H185.84a1.493,1.493,0,1,0,0-2.985H171.512a1.493,1.493,0,0,0,0,2.985Z" transform="translate(-110.817 -262.884)" fill="#267c88"/>
    <path id="Path_2063" data-name="Path 2063" d="M101.481,385.406a1.493,1.493,0,0,0,1.493,1.493h8.159a1.493,1.493,0,0,0,1.493-1.493v-7.961a1.492,1.492,0,0,0-1.493-1.493h-8.159a1.493,1.493,0,0,0-1.493,1.493Zm2.985-6.468h5.174v4.975h-5.174Z" transform="translate(-55.812 -302.52)" fill="#267c88"/>
    <path id="Path_2064" data-name="Path 2064" d="M197.284,378.455a1.493,1.493,0,0,0-1.493-1.493h-24.28a1.493,1.493,0,0,0,0,2.985h24.28A1.493,1.493,0,0,0,197.284,378.455Z" transform="translate(-110.817 -303.33)" fill="#267c88"/>
    <path id="Path_2065" data-name="Path 2065" d="M171.512,416.268a1.493,1.493,0,0,0,0,2.985H185.84a1.493,1.493,0,1,0,0-2.985Z" transform="translate(-110.817 -334.875)" fill="#267c88"/>
    <path id="Path_2066" data-name="Path 2066" d="M415.3,69.555h-5.97a4.483,4.483,0,0,0-4.478,4.477V140.5a1.492,1.492,0,0,0,.333.94l5.97,7.363a1.493,1.493,0,0,0,2.32,0l5.97-7.363a1.489,1.489,0,0,0,.333-.94V96.819a1.493,1.493,0,0,0-2.985,0v43.154l-4.478,5.523-4.477-5.523V83.884h2.985V140.5a1.492,1.492,0,1,0,2.985,0V83.884H416.8v5.987a1.493,1.493,0,1,0,2.985,0V74.032A4.482,4.482,0,0,0,415.3,69.555ZM407.841,80.9V74.032a1.494,1.494,0,0,1,1.493-1.492H415.3a1.494,1.494,0,0,1,1.493,1.492V80.9Z" transform="translate(-299.284 -56.622)" fill="#267c88"/>
  </g>
</svg>
