<svg xmlns="http://www.w3.org/2000/svg" width="45.4" height="45.4" viewBox="0 0 45.4 45.4">
  <g id="Group_660" data-name="Group 660" transform="translate(-607.745 -55.333)">
    <path id="Path_2108" data-name="Path 2108" d="M658.81,88.4a2.789,2.789,0,0,0-3.2-1.5,2.04,2.04,0,0,1,1.627-.58.028.028,0,0,0,.012-.053,2.794,2.794,0,0,0-2.51.239,5.742,5.742,0,0,1-.436-1.421.025.025,0,0,0-.05,0,5.743,5.743,0,0,1-.436,1.421,2.794,2.794,0,0,0-2.51-.239.028.028,0,0,0,.012.053,2.041,2.041,0,0,1,1.627.58,2.789,2.789,0,0,0-3.2,1.5.028.028,0,0,0,.046.03,3.142,3.142,0,0,1,2.459-.749,2.532,2.532,0,0,0-2.154,2.428.028.028,0,0,0,.054.013,2.568,2.568,0,0,1,2.074-1.62c-1.867,1.114-1.427,3.519-1.185,4.41a.028.028,0,0,0,.054-.01,3.634,3.634,0,0,1,1.9-3.372c-1.665,1.73-.371,3.993-.016,4.538a.028.028,0,0,0,.05-.022,3.543,3.543,0,0,1,.527-3.142,51.064,51.064,0,0,1,.008,8.65l.671.522.757-.522a51.091,51.091,0,0,1,.008-8.65,3.543,3.543,0,0,1,.527,3.142.028.028,0,0,0,.051.022c.354-.545,1.648-2.808-.017-4.538a3.634,3.634,0,0,1,1.9,3.372.028.028,0,0,0,.054.01c.241-.891.682-3.3-1.185-4.41a2.569,2.569,0,0,1,2.074,1.62.028.028,0,0,0,.053-.013,2.532,2.532,0,0,0-2.153-2.428,3.142,3.142,0,0,1,2.459.749.028.028,0,0,0,.046-.03" transform="translate(-23.848 -16.558)" fill="#056363"/>
    <path id="Path_2109" data-name="Path 2109" d="M642.923,115.676a8.192,8.192,0,0,1,4.34,1.493c.8.5,1.612,1.062,2.46,1.545l0,0c2.893,1.92,4.545,2.166,5.127,2.182a.043.043,0,0,1,.013.083,5.394,5.394,0,0,1-3.279-.112,21.1,21.1,0,0,1-5.364-2.9,10.7,10.7,0,0,0-4.812-1.924.053.053,0,0,1-.014-.1,4.512,4.512,0,0,1,1.525-.264" transform="translate(-18.828 -34.542)" fill="#056363"/>
    <path id="Path_2110" data-name="Path 2110" d="M658.538,115.676a8.192,8.192,0,0,0-4.34,1.493c-.8.5-1.612,1.062-2.46,1.545l0,0c-2.893,1.92-4.545,2.166-5.127,2.182a.043.043,0,0,0-.013.083,5.394,5.394,0,0,0,3.279-.112,21.1,21.1,0,0,0,5.364-2.9,10.694,10.694,0,0,1,4.812-1.924.053.053,0,0,0,.014-.1,4.519,4.519,0,0,0-1.525-.264" transform="translate(-21.743 -34.542)" fill="#056363"/>
    <path id="Path_2111" data-name="Path 2111" d="M691.862,70.868l-1.9-4.6a1.668,1.668,0,0,0-1.542-1.032h-4.178v0h0V61.054a1.668,1.668,0,0,0-1.032-1.542l-4.6-1.9a.008.008,0,0,0-.006.014,1.594,1.594,0,0,1,.793,1.4l0,8.166a2.889,2.889,0,0,0,2.889,2.89h8.17a1.594,1.594,0,0,1,1.4.793.008.008,0,0,0,.014-.007" transform="translate(-39.594 -1.402)" fill="#056363"/>
    <path id="Path_2112" data-name="Path 2112" d="M698.759,103.515l1.911-4.6a1.668,1.668,0,0,0-.361-1.82l-2.955-2.954,0,0,0,0,2.955-2.954a1.668,1.668,0,0,0,.361-1.82l-1.911-4.6a.008.008,0,0,0-.014.005,1.6,1.6,0,0,1-.428,1.55L692.541,92.1a2.889,2.889,0,0,0,0,4.086l5.777,5.777a1.6,1.6,0,0,1,.428,1.549.008.008,0,0,0,.014.005" transform="translate(-47.653 -16.109)" fill="#20bec6"/>
    <path id="Path_2113" data-name="Path 2113" d="M678.607,139.451l4.6-1.9a1.667,1.667,0,0,0,1.032-1.542v-4.178h0v0h4.178a1.669,1.669,0,0,0,1.542-1.032l1.9-4.6a.008.008,0,0,0-.014-.007,1.594,1.594,0,0,1-1.4.793l-8.166,0a2.889,2.889,0,0,0-2.89,2.889v8.17a1.594,1.594,0,0,1-.793,1.4.008.008,0,0,0,.006.014" transform="translate(-39.594 -39.595)" fill="#056363"/>
    <path id="Path_2114" data-name="Path 2114" d="M637.181,146.347l4.6,1.911a1.668,1.668,0,0,0,1.82-.361l2.954-2.955,0,0,0,0,2.954,2.955a1.667,1.667,0,0,0,1.82.361l4.6-1.911a.008.008,0,0,0-.005-.014,1.6,1.6,0,0,1-1.55-.428l-5.773-5.776a2.889,2.889,0,0,0-4.086,0l-5.777,5.777a1.6,1.6,0,0,1-1.549.428.008.008,0,1,0-.005.014" transform="translate(-16.109 -47.653)" fill="#20bec6"/>
    <path id="Path_2115" data-name="Path 2115" d="M610.025,126.2l1.9,4.6a1.667,1.667,0,0,0,1.542,1.032h4.178v0h0v4.178a1.669,1.669,0,0,0,1.032,1.542l4.6,1.9a.008.008,0,0,0,.007-.014,1.6,1.6,0,0,1-.793-1.4l0-8.166a2.889,2.889,0,0,0-2.889-2.89h-8.17a1.594,1.594,0,0,1-1.4-.793.007.007,0,0,0-.013.007" transform="translate(-1.402 -39.595)" fill="#056363"/>
    <path id="Path_2116" data-name="Path 2116" d="M609.784,84.769l-1.911,4.6a1.668,1.668,0,0,0,.361,1.82l2.954,2.954,0,0,0,0L608.234,97.1a1.667,1.667,0,0,0-.361,1.82l1.911,4.6a.008.008,0,0,0,.014-.005,1.6,1.6,0,0,1,.428-1.55L616,96.187a2.889,2.889,0,0,0,0-4.086l-5.777-5.777a1.6,1.6,0,0,1-.428-1.549.008.008,0,1,0-.014-.005" transform="translate(0 -16.109)" fill="#20bec6"/>
    <path id="Path_2117" data-name="Path 2117" d="M623.279,57.613l-4.6,1.9a1.667,1.667,0,0,0-1.032,1.542v4.178h0v0h-4.178a1.668,1.668,0,0,0-1.542,1.032l-1.9,4.6a.008.008,0,0,0,.014.007,1.594,1.594,0,0,1,1.4-.793l8.166,0a2.889,2.889,0,0,0,2.89-2.889v-8.17a1.594,1.594,0,0,1,.793-1.4.008.008,0,0,0-.007-.014" transform="translate(-1.401 -1.402)" fill="#056363"/>
    <path id="Path_2118" data-name="Path 2118" d="M655.927,57.372l-4.6-1.911a1.668,1.668,0,0,0-1.82.361l-2.954,2.955,0,0,0,0L643.6,55.822a1.667,1.667,0,0,0-1.82-.361l-4.6,1.911a.008.008,0,0,0,.005.014,1.6,1.6,0,0,1,1.55.428l5.773,5.776a2.889,2.889,0,0,0,4.086,0l5.777-5.777a1.594,1.594,0,0,1,1.549-.428.008.008,0,1,0,.005-.014" transform="translate(-16.109 0)" fill="#20bec6"/>
  </g>
</svg>
