<svg xmlns="http://www.w3.org/2000/svg" width="88.8" height="88.742" viewBox="0 0 88.8 88.742">
  <defs>
    <style>
      .cls-1 {
        fill: #fff;
      }
    </style>
  </defs>
  <g id="Group_650" data-name="Group 650" transform="translate(-16 -16.166)">
    <path id="Path_2073" data-name="Path 2073" class="cls-1" d="M474.863,200.694c.2.932.373,1.89.511,2.846a1.484,1.484,0,0,0,2.939-.416l0-.012c-.148-1.024-.332-2.05-.548-3.047a1.48,1.48,0,0,0-2.893.623Z" transform="translate(-373.956 -148.941)"/>
    <path id="Path_2074" data-name="Path 2074" class="cls-1" d="M93.814,70.4a1.48,1.48,0,0,0,.993-.383c.707-.641,1.45-1.268,2.208-1.863a1.486,1.486,0,0,0-1.829-2.341h0c-.813.638-1.609,1.311-2.368,2a1.48,1.48,0,0,0,.995,2.577Z" transform="translate(-62.21 -40.205)"/>
    <path id="Path_2075" data-name="Path 2075" class="cls-1" d="M22.092,190.689a1.533,1.533,0,0,0,.3.031,1.48,1.48,0,0,0,1.447-1.184c.2-.934.426-1.878.69-2.812a1.48,1.48,0,0,0-2.849-.789c-.281.995-.53,2.007-.74,3.007A1.48,1.48,0,0,0,22.092,190.689Z" transform="translate(-4.006 -137.536)"/>
    <path id="Path_2076" data-name="Path 2076" class="cls-1" d="M132.92,44.071a1.48,1.48,0,0,0,.74-.2c.829-.482,1.686-.943,2.543-1.365a1.48,1.48,0,0,0-1.3-2.661l-.009,0c-.921.453-1.838.946-2.728,1.464a1.48,1.48,0,0,0,.74,2.759Z" transform="translate(-94.079 -19.176)"/>
    <path id="Path_2077" data-name="Path 2077" class="cls-1" d="M61.45,104.6a1.479,1.479,0,0,0,1.2-.611c.564-.78,1.162-1.548,1.776-2.284a1.482,1.482,0,0,0-2.276-1.9h0c-.659.787-1.3,1.61-1.9,2.445a1.48,1.48,0,0,0,.325,2.068l.006,0A1.464,1.464,0,0,0,61.45,104.6Z" transform="translate(-35.83 -67.737)"/>
    <path id="Path_2078" data-name="Path 2078" class="cls-1" d="M36.656,145.035a1.462,1.462,0,0,0,.6.129,1.48,1.48,0,0,0,1.353-.888c.388-.873.814-1.749,1.265-2.6a1.48,1.48,0,0,0-2.617-1.385c-.484.913-.938,1.851-1.354,2.788a1.48,1.48,0,0,0,.747,1.955Z" transform="translate(-16.115 -100.518)"/>
    <path id="Path_2079" data-name="Path 2079" class="cls-1" d="M436.97,115.473a1.481,1.481,0,0,0,2.507-1.578c-.546-.866-1.134-1.727-1.743-2.56a1.48,1.48,0,1,0-2.463,1.642c.025.038.052.074.08.109C435.916,113.863,436.464,114.665,436.97,115.473Z" transform="translate(-341.503 -77.025)"/>
    <path id="Path_2080" data-name="Path 2080" class="cls-1" d="M405.281,79.69a1.48,1.48,0,0,0,2.143-2.042l-.021-.021c-.713-.74-1.464-1.455-2.235-2.145a1.48,1.48,0,0,0-1.974,2.205c.719.644,1.421,1.319,2.087,2Z" transform="translate(-315.17 -48.043)"/>
    <path id="Path_2081" data-name="Path 2081" class="cls-1" d="M21.726,284.79c-.2-.931-.369-1.888-.5-2.845a1.48,1.48,0,0,0-2.936.379c0,.012,0,.025.005.037.148,1.024.327,2.05.54,3.047a1.48,1.48,0,0,0,1.446,1.171,1.383,1.383,0,0,0,.311-.033,1.48,1.48,0,0,0,1.138-1.757Z" transform="translate(-1.853 -215.559)"/>
    <path id="Path_2082" data-name="Path 2082" class="cls-1" d="M364.105,49.454c.832.477,1.658.992,2.455,1.526a1.482,1.482,0,0,0,1.658-2.457h0c-.855-.573-1.739-1.123-2.631-1.628a1.482,1.482,0,1,0-1.48,2.568Z" transform="translate(-283.102 -24.883)"/>
    <path id="Path_2083" data-name="Path 2083" class="cls-1" d="M459.768,154.905c.392.869.759,1.769,1.094,2.673a1.48,1.48,0,1,0,2.8-.954c-.008-.025-.017-.049-.027-.073-.357-.968-.752-1.924-1.169-2.861a1.48,1.48,0,0,0-2.7,1.215Z" transform="translate(-361.564 -111.371)"/>
    <path id="Path_2084" data-name="Path 2084" class="cls-1" d="M272.861,20.128c.949.1,1.912.226,2.862.389a1.48,1.48,0,1,0,.544-2.909l-.044-.008c-1.017-.175-2.05-.315-3.068-.417a1.48,1.48,0,1,0-.3,2.945Z" transform="translate(-208.255 -0.823)"/>
    <path id="Path_2085" data-name="Path 2085" class="cls-1" d="M224.182,19.341a1.441,1.441,0,0,0,.16-.009c.961-.1,1.924-.173,2.882-.206a1.48,1.48,0,0,0,1.428-1.53v0a1.5,1.5,0,0,0-1.532-1.427c-1.021.037-2.06.112-3.09.222a1.482,1.482,0,1,0,.155,2.96Z" transform="translate(-168.399)"/>
    <path id="Path_2086" data-name="Path 2086" class="cls-1" d="M320.4,30.054c.918.3,1.835.625,2.723.981a1.48,1.48,0,1,0,1.158-2.724l-.057-.023c-.953-.383-1.936-.74-2.919-1.052a1.48,1.48,0,0,0-.906,2.812Z" transform="translate(-247.317 -8.985)"/>
    <path id="Path_2087" data-name="Path 2087" class="cls-1" d="M177.124,26.79a1.522,1.522,0,0,0,.462-.074c.906-.3,1.84-.568,2.776-.8a1.481,1.481,0,0,0-.724-2.871h0c-1,.253-2,.543-2.976.861a1.48,1.48,0,0,0,.462,2.887Z" transform="translate(-130.106 -5.566)"/>
    <path id="Path_2088" data-name="Path 2088" class="cls-1" d="M18.96,236.692q0-1.415.093-2.8a1.48,1.48,0,0,0-1.378-1.575,1.458,1.458,0,0,0-1.572,1.334c0,.014,0,.028,0,.042-.067.992-.1,2-.1,2.96v.126a1.442,1.442,0,0,0,1.448,1.435h.032A1.519,1.519,0,0,0,18.96,236.692Z" transform="translate(0 -176.157)"/>
    <path id="Path_2089" data-name="Path 2089" class="cls-1" d="M308.175,468.642c-.918.3-1.853.567-2.776.8a1.48,1.48,0,1,0,.694,2.878l.02,0c.992-.246,2-.533,2.979-.854a1.48,1.48,0,0,0-.8-2.85c-.039.011-.078.024-.116.038Z" transform="translate(-234.936 -368.694)"/>
    <path id="Path_2090" data-name="Path 2090" class="cls-1" d="M393.484,420.99c-.713.644-1.459,1.27-2.22,1.862a1.48,1.48,0,1,0,1.743,2.392c.027-.02.054-.041.08-.063.81-.633,1.607-1.3,2.368-1.991a1.48,1.48,0,0,0-1.971-2.2Z" transform="translate(-305.344 -329.671)"/>
    <path id="Path_2091" data-name="Path 2091" class="cls-1" d="M353.221,449.221c-.832.481-1.689.938-2.549,1.36a1.48,1.48,0,0,0,.651,2.812,1.458,1.458,0,0,0,.65-.148c.922-.444,1.84-.94,2.731-1.455a1.48,1.48,0,0,0-1.48-2.562Z" transform="translate(-272.077 -352.802)"/>
    <path id="Path_2092" data-name="Path 2092" class="cls-1" d="M427.852,384.81c-.561.771-1.16,1.538-1.776,2.281a1.48,1.48,0,1,0,2.235,1.94l.034-.04c.665-.795,1.307-1.615,1.906-2.44a1.48,1.48,0,1,0-2.351-1.8l-.042.058Z" transform="translate(-333.916 -299.924)"/>
    <path id="Path_2093" data-name="Path 2093" class="cls-1" d="M481.027,247.032a1.48,1.48,0,0,0-1.48,1.48v.179c0,.961-.033,1.934-.1,2.889a1.48,1.48,0,0,0,1.374,1.579h.1a1.48,1.48,0,0,0,1.48-1.378c.065-1.018.1-2.054.1-3.09v-.179A1.48,1.48,0,0,0,481.027,247.032Z" transform="translate(-377.707 -188.156)"/>
    <path id="Path_2094" data-name="Path 2094" class="cls-1" d="M473.589,296.243a1.48,1.48,0,0,0-1.752,1.143c-.2.932-.431,1.875-.7,2.812a1.48,1.48,0,0,0,1.015,1.829,1.456,1.456,0,0,0,.41.058,1.48,1.48,0,0,0,1.422-1.073c.284-1,.534-2.008.74-3.009a1.48,1.48,0,0,0-1.134-1.759Z" transform="translate(-370.892 -228.237)"/>
    <path id="Path_2095" data-name="Path 2095" class="cls-1" d="M456.31,342.468a1.48,1.48,0,0,0-1.954.75c-.389.87-.817,1.745-1.271,2.6a1.48,1.48,0,0,0,.613,2,1.462,1.462,0,0,0,.693.173,1.48,1.48,0,0,0,1.308-.784c.487-.915.946-1.851,1.36-2.787a1.48,1.48,0,0,0-.749-1.954Z" transform="translate(-356.084 -265.832)"/>
    <path id="Path_2096" data-name="Path 2096" class="cls-1" d="M54.215,372.052a1.48,1.48,0,0,0-2.506,1.575c.546.87,1.131,1.733,1.736,2.562a1.48,1.48,0,1,0,2.417-1.708l-.026-.035c-.565-.776-1.111-1.581-1.622-2.393Z" transform="translate(-28.931 -289.504)"/>
    <path id="Path_2097" data-name="Path 2097" class="cls-1" d="M123.247,442.3c-.829-.48-1.655-.995-2.454-1.533a1.48,1.48,0,1,0-1.655,2.455c.857.577,1.742,1.129,2.628,1.641a1.48,1.48,0,1,0,1.5-2.553l-.017-.01Z" transform="translate(-83.525 -345.843)"/>
    <path id="Path_2098" data-name="Path 2098" class="cls-1" d="M83.9,409.859a1.48,1.48,0,0,0-2.127,2.059c.718.74,1.467,1.462,2.23,2.149a1.48,1.48,0,0,0,1.979-2.2C85.266,411.225,84.564,410.549,83.9,409.859Z" transform="translate(-53.267 -320.498)"/>
    <path id="Path_2099" data-name="Path 2099" class="cls-1" d="M34.028,331.411c-.394-.876-.759-1.776-1.088-2.674a1.48,1.48,0,0,0-2.779,1.018h0c.354.962.74,1.924,1.165,2.865a1.48,1.48,0,1,0,2.7-1.209Z" transform="translate(-11.467 -253.954)"/>
    <path id="Path_2100" data-name="Path 2100" class="cls-1" d="M260.524,478.743c-.956.1-1.924.167-2.882.2a1.48,1.48,0,0,0,.049,2.96h.052c1.026-.034,2.065-.107,3.09-.215a1.48,1.48,0,0,0-.309-2.944Z" transform="translate(-195.752 -376.996)"/>
    <path id="Path_2101" data-name="Path 2101" class="cls-1" d="M212.55,476.979c-.947-.1-1.911-.231-2.864-.4a1.48,1.48,0,0,0-.5,2.917c1.02.176,2.051.318,3.067.422a1.32,1.32,0,0,0,.148.009,1.482,1.482,0,1,0,.148-2.96Z" transform="translate(-156.442 -375.223)"/>
    <path id="Path_2102" data-name="Path 2102" class="cls-1" d="M165.981,464.321c-.915-.3-1.829-.626-2.72-.986a1.48,1.48,0,0,0-1.148,2.728l.043.017c.955.385,1.936.74,2.916,1.058a1.525,1.525,0,0,0,.456.073,1.48,1.48,0,0,0,.454-2.89Z" transform="translate(-118.343 -364.349)"/>
    <path id="Path_2103" data-name="Path 2103" class="cls-1" d="M130,93a37,37,0,1,0-37,37A37,37,0,0,0,130,93ZM59,94.48H73.779a67,67,0,0,0,1.877,14.8H63.114A33.81,33.81,0,0,1,59,94.48Zm4.117-17.76H75.656a67,67,0,0,0-1.877,14.8H59a33.81,33.81,0,0,1,4.117-14.8ZM127,91.52H112.221a67,67,0,0,0-1.877-14.8h12.543A33.828,33.828,0,0,1,127,91.52Zm-17.742,0H94.48V76.72h12.743A62.784,62.784,0,0,1,109.261,91.52ZM94.48,73.76V59.108c4.846.963,9.151,6.589,11.852,14.652ZM91.52,59.108V73.76H79.668C82.369,65.7,86.674,60.077,91.52,59.108Zm0,17.612v14.8H76.739a62.862,62.862,0,0,1,2.038-14.8ZM76.739,94.48H91.52v14.8H78.777a62.862,62.862,0,0,1-2.038-14.8ZM91.52,112.24v14.652c-4.846-.963-9.151-6.589-11.852-14.652Zm2.96,14.652V112.24h11.852C103.631,120.3,99.326,125.923,94.48,126.892Zm0-17.612V94.48h14.781a62.784,62.784,0,0,1-2.038,14.8Zm17.741-14.8H127a33.828,33.828,0,0,1-4.116,14.8H110.344a67,67,0,0,0,1.877-14.8Zm8.84-20.72H109.517a33.077,33.077,0,0,0-7.5-13.579A34.147,34.147,0,0,1,121.061,73.76ZM83.985,60.181a33.059,33.059,0,0,0-7.5,13.579H64.939A34.151,34.151,0,0,1,83.985,60.181ZM64.939,112.24H76.483a33.059,33.059,0,0,0,7.5,13.579A34.15,34.15,0,0,1,64.939,112.24Zm37.075,13.579a33.077,33.077,0,0,0,7.5-13.579h11.544A34.146,34.146,0,0,1,102.015,125.819Z" transform="translate(-32.6 -32.465)"/>
  </g>
</svg>
