<svg id="Icon_ionic-ios-help-circle-outline" data-name="Icon ionic-ios-help-circle-outline" xmlns="http://www.w3.org/2000/svg" width="36.679" height="36.679" viewBox="0 0 36.679 36.679">
  <path id="Path_119" data-name="Path 119" d="M21.714,5.844A15.864,15.864,0,1,1,10.49,10.49,15.766,15.766,0,0,1,21.714,5.844m0-2.469A18.339,18.339,0,1,0,40.054,21.714,18.337,18.337,0,0,0,21.714,3.375Z" transform="translate(-3.375 -3.375)" fill="#fff"/>
  <path id="Path_120" data-name="Path 120" d="M19.2,11.25c3.306,0,5.581,1.834,5.581,4.47a4.313,4.313,0,0,1-2.478,3.915c-1.534.891-2.054,1.543-2.054,2.672V23H17.194l-.026-.758a3.67,3.67,0,0,1,2.081-3.879c1.49-.891,2.116-1.455,2.116-2.548a2.14,2.14,0,0,0-2.372-1.9,2.231,2.231,0,0,0-2.363,2.169H13.5C13.562,13.251,15.66,11.25,19.2,11.25ZM16.886,26.362a1.893,1.893,0,1,1,1.887,1.816A1.847,1.847,0,0,1,16.886,26.362Z" transform="translate(-0.804 -1.375)" fill="#fff"/>
</svg>
