<?xml version="1.0" encoding="UTF-8"?><svg id="Layer_2" xmlns="http://www.w3.org/2000/svg" viewBox="0 0 225.98 54.85"><defs><style>.cls-1{fill:#fff;opacity:0;}.cls-2{fill:#fcfcfc;}</style></defs><g id="Layer_1-2"><rect class="cls-1" width="225.98" height="54.85"/><path class="cls-2" d="m85.36,53.54c.05-.08.08-.17.14-.24,4.27-4.89,8.55-9.77,12.82-14.66,2.51-2.87,5.02-5.73,7.53-8.6.08-.09.15-.18.25-.3-7.28-9.52-14.56-19.04-21.88-28.61.49-.03.92-.08,1.35-.08,3.35,0,6.7,0,10.06,0,1.89,0,3.79-.01,5.68-.03.86,0,1.5.33,2.02,1.01,2.63,3.51,5.28,7.01,7.93,10.51,1.31,1.74,2.63,3.47,3.97,5.22.08-.06.13-.09.17-.13,2.35-2.65,4.68-5.31,7.04-7.94,2.56-2.85,5.14-5.68,7.72-8.51.09-.1.25-.19.38-.19,2.68.01,5.37.04,8.05.06.05,0,.11,0,.24.01-6.5,7.43-12.97,14.82-19.44,22.22.92,1.21,1.82,2.41,2.72,3.6,6.66,8.81,13.33,17.62,19.99,26.43.03.04.07.07.11.11-.02.04-.04.12-.07.13-.07.02-.15,0-.23,0h-16.92c-.63-.18-1.11-.55-1.51-1.07-4.08-5.36-8.17-10.7-12.25-16.05-.3-.4-.61-.79-.94-1.2-.08.09-.14.16-.2.22-2.53,2.88-5.05,5.76-7.58,8.64-2.49,2.83-4.98,5.65-7.46,8.48-.46.53-1.03.83-1.72.92-.14.02-.27.04-.41.06h-7.56Zm46.2-5.38c-.12-.22-.19-.39-.3-.54-.43-.58-.87-1.16-1.3-1.73-7.28-9.63-14.57-19.26-21.86-28.88-2.57-3.4-5.15-6.78-7.71-10.18-.38-.5-.84-.73-1.46-.72-1.29.01-2.58,0-3.88,0-.1,0-.19,0-.36,0,.15.24.24.45.38.63,2.97,3.89,5.94,7.78,8.91,11.66,6.82,8.91,13.64,17.82,20.46,26.73.65.84,1.29,1.68,1.94,2.53.27.35.58.54,1.06.53,1.26-.02,2.52,0,3.78.01.09,0,.17-.01.34-.03Z"/></g></svg>